<svg id="visual" viewBox="0 0 900 600" width="900" height="600" xmlns="http://www.w3.org/2000/svg" xmlns:xlink="http://www.w3.org/1999/xlink" version="1.1"><rect x="0" y="0" width="900" height="600" fill="#001220"></rect><path d="M0 432L21.5 434.2C43 436.3 86 440.7 128.8 430.8C171.7 421 214.3 397 257.2 390.7C300 384.3 343 395.7 385.8 399C428.7 402.3 471.3 397.7 514.2 388.7C557 379.7 600 366.3 642.8 373C685.7 379.7 728.3 406.3 771.2 417.2C814 428 857 423 878.5 420.5L900 418L900 601L878.5 601C857 601 814 601 771.2 601C728.3 601 685.7 601 642.8 601C600 601 557 601 514.2 601C471.3 601 428.7 601 385.8 601C343 601 300 601 257.2 601C214.3 601 171.7 601 128.8 601C86 601 43 601 21.5 601L0 601Z" fill="#6a65b7"></path><path d="M0 395L21.5 407.3C43 419.7 86 444.3 128.8 450.8C171.7 457.3 214.3 445.7 257.2 444.3C300 443 343 452 385.8 459.2C428.7 466.3 471.3 471.7 514.2 473.8C557 476 600 475 642.8 474.5C685.7 474 728.3 474 771.2 461.2C814 448.3 857 422.7 878.5 409.8L900 397L900 601L878.5 601C857 601 814 601 771.2 601C728.3 601 685.7 601 642.8 601C600 601 557 601 514.2 601C471.3 601 428.7 601 385.8 601C343 601 300 601 257.2 601C214.3 601 171.7 601 128.8 601C86 601 43 601 21.5 601L0 601Z" fill="#524da9"></path><path d="M0 469L21.5 468C43 467 86 465 128.8 471.2C171.7 477.3 214.3 491.7 257.2 492.5C300 493.3 343 480.7 385.8 481.3C428.7 482 471.3 496 514.2 491.7C557 487.3 600 464.7 642.8 461C685.7 457.3 728.3 472.7 771.2 473.5C814 474.3 857 460.7 878.5 453.8L900 447L900 601L878.5 601C857 601 814 601 771.2 601C728.3 601 685.7 601 642.8 601C600 601 557 601 514.2 601C471.3 601 428.7 601 385.8 601C343 601 300 601 257.2 601C214.3 601 171.7 601 128.8 601C86 601 43 601 21.5 601L0 601Z" fill="#38369a"></path><path d="M0 514L21.5 512.8C43 511.7 86 509.3 128.8 510.2C171.7 511 214.3 515 257.2 513.3C300 511.7 343 504.3 385.8 502.2C428.7 500 471.3 503 514.2 502.2C557 501.3 600 496.7 642.8 498.3C685.7 500 728.3 508 771.2 510.3C814 512.7 857 509.3 878.5 507.7L900 506L900 601L878.5 601C857 601 814 601 771.2 601C728.3 601 685.7 601 642.8 601C600 601 557 601 514.2 601C471.3 601 428.7 601 385.8 601C343 601 300 601 257.2 601C214.3 601 171.7 601 128.8 601C86 601 43 601 21.5 601L0 601Z" fill="#2e3086"></path><path d="M0 552L21.5 554.5C43 557 86 562 128.8 565.2C171.7 568.3 214.3 569.7 257.2 567.5C300 565.3 343 559.7 385.8 552.2C428.7 544.7 471.3 535.3 514.2 535.7C557 536 600 546 642.8 551C685.7 556 728.3 556 771.2 551.3C814 546.7 857 537.3 878.5 532.7L900 528L900 601L878.5 601C857 601 814 601 771.2 601C728.3 601 685.7 601 642.8 601C600 601 557 601 514.2 601C471.3 601 428.7 601 385.8 601C343 601 300 601 257.2 601C214.3 601 171.7 601 128.8 601C86 601 43 601 21.5 601L0 601Z" fill="#252972"></path></svg>