<svg id="visual" viewBox="0 0 900 200" width="900" height="200" xmlns="http://www.w3.org/2000/svg" xmlns:xlink="http://www.w3.org/1999/xlink" version="1.1"><rect x="0" y="0" width="900" height="200" fill="#001220"></rect><path d="M0 143L21.5 143.8C43 144.7 86 146.3 128.8 143.2C171.7 140 214.3 132 257.2 129.8C300 127.7 343 131.3 385.8 132.3C428.7 133.3 471.3 131.7 514.2 128.7C557 125.7 600 121.3 642.8 123.7C685.7 126 728.3 135 771.2 138.7C814 142.3 857 140.7 878.5 139.8L900 139L900 201L878.5 201C857 201 814 201 771.2 201C728.3 201 685.7 201 642.8 201C600 201 557 201 514.2 201C471.3 201 428.7 201 385.8 201C343 201 300 201 257.2 201C214.3 201 171.7 201 128.8 201C86 201 43 201 21.5 201L0 201Z" fill="#6a65b7"></path><path d="M0 131L21.5 135.2C43 139.3 86 147.7 128.8 149.8C171.7 152 214.3 148 257.2 147.5C300 147 343 150 385.8 152.3C428.7 154.7 471.3 156.3 514.2 157C557 157.7 600 157.3 642.8 157.2C685.7 157 728.3 157 771.2 152.8C814 148.7 857 140.3 878.5 136.2L900 132L900 201L878.5 201C857 201 814 201 771.2 201C728.3 201 685.7 201 642.8 201C600 201 557 201 514.2 201C471.3 201 428.7 201 385.8 201C343 201 300 201 257.2 201C214.3 201 171.7 201 128.8 201C86 201 43 201 21.5 201L0 201Z" fill="#524da9"></path><path d="M0 156L21.5 155.7C43 155.3 86 154.7 128.8 156.7C171.7 158.7 214.3 163.3 257.2 163.5C300 163.7 343 159.3 385.8 159.5C428.7 159.7 471.3 164.3 514.2 163C557 161.7 600 154.3 642.8 153.2C685.7 152 728.3 157 771.2 157.2C814 157.3 857 152.7 878.5 150.3L900 148L900 201L878.5 201C857 201 814 201 771.2 201C728.3 201 685.7 201 642.8 201C600 201 557 201 514.2 201C471.3 201 428.7 201 385.8 201C343 201 300 201 257.2 201C214.3 201 171.7 201 128.8 201C86 201 43 201 21.5 201L0 201Z" fill="#38369a"></path><path d="M0 171L21.5 170.5C43 170 86 169 128.8 169.2C171.7 169.3 214.3 170.7 257.2 170.2C300 169.7 343 167.3 385.8 166.7C428.7 166 471.3 167 514.2 166.7C557 166.3 600 164.7 642.8 165.2C685.7 165.7 728.3 168.3 771.2 169.2C814 170 857 169 878.5 168.5L900 168L900 201L878.5 201C857 201 814 201 771.2 201C728.3 201 685.7 201 642.8 201C600 201 557 201 514.2 201C471.3 201 428.7 201 385.8 201C343 201 300 201 257.2 201C214.3 201 171.7 201 128.8 201C86 201 43 201 21.5 201L0 201Z" fill="#2e3086"></path><path d="M0 183L21.5 183.8C43 184.7 86 186.3 128.8 187.5C171.7 188.7 214.3 189.3 257.2 188.7C300 188 343 186 385.8 183.5C428.7 181 471.3 178 514.2 178.2C557 178.3 600 181.7 642.8 183.3C685.7 185 728.3 185 771.2 183.3C814 181.7 857 178.3 878.5 176.7L900 175L900 201L878.5 201C857 201 814 201 771.2 201C728.3 201 685.7 201 642.8 201C600 201 557 201 514.2 201C471.3 201 428.7 201 385.8 201C343 201 300 201 257.2 201C214.3 201 171.7 201 128.8 201C86 201 43 201 21.5 201L0 201Z" fill="#252972"></path></svg>